<svg width="1920" height="1080" viewBox="0 0 1920 1080" fill="none" xmlns="http://www.w3.org/2000/svg">
<rect width="1920" height="1080" fill="#1E1E1E"/>
<g clip-path="url(#clip0_0_1)">
<rect width="1920" height="1080" fill="white"/>
<rect width="1920" height="1080" fill="#B64E4E"/>
<g filter="url(#filter0_i_0_1)">
<path d="M626.187 567.832V599H604.555V505.752H637.451C644.022 505.752 649.654 506.541 654.347 508.12C659.083 509.656 662.966 511.789 665.995 514.52C669.067 517.251 671.328 520.472 672.779 524.184C674.23 527.896 674.955 531.907 674.955 536.216C674.955 540.867 674.208 545.133 672.715 549.016C671.222 552.899 668.939 556.227 665.867 559C662.795 561.773 658.891 563.949 654.155 565.528C649.462 567.064 643.894 567.832 637.451 567.832H626.187ZM626.187 551.512H637.451C643.083 551.512 647.136 550.168 649.611 547.48C652.086 544.792 653.323 541.037 653.323 536.216C653.323 534.083 653.003 532.141 652.363 530.392C651.723 528.643 650.742 527.149 649.419 525.912C648.139 524.632 646.496 523.651 644.491 522.968C642.528 522.285 640.182 521.944 637.451 521.944H626.187V551.512ZM778.212 552.344C778.212 559.085 777.039 565.357 774.692 571.16C772.388 576.963 769.124 582.019 764.9 586.328C760.676 590.595 755.577 593.944 749.604 596.376C743.673 598.808 737.081 600.024 729.828 600.024C722.575 600.024 715.961 598.808 709.988 596.376C704.015 593.944 698.895 590.595 694.628 586.328C690.404 582.019 687.119 576.963 684.772 571.16C682.468 565.357 681.316 559.085 681.316 552.344C681.316 545.603 682.468 539.331 684.772 533.528C687.119 527.725 690.404 522.691 694.628 518.424C698.895 514.157 704.015 510.808 709.988 508.376C715.961 505.944 722.575 504.728 729.828 504.728C737.081 504.728 743.673 505.965 749.604 508.44C755.577 510.872 760.676 514.221 764.9 518.488C769.124 522.755 772.388 527.789 774.692 533.592C777.039 539.395 778.212 545.645 778.212 552.344ZM756.068 552.344C756.068 547.736 755.471 543.597 754.276 539.928C753.081 536.216 751.353 533.08 749.092 530.52C746.873 527.96 744.143 525.997 740.9 524.632C737.657 523.267 733.967 522.584 729.828 522.584C725.647 522.584 721.913 523.267 718.628 524.632C715.385 525.997 712.633 527.96 710.372 530.52C708.153 533.08 706.447 536.216 705.252 539.928C704.057 543.597 703.46 547.736 703.46 552.344C703.46 556.995 704.057 561.176 705.252 564.888C706.447 568.557 708.153 571.672 710.372 574.232C712.633 576.792 715.385 578.755 718.628 580.12C721.913 581.443 725.647 582.104 729.828 582.104C733.967 582.104 737.657 581.443 740.9 580.12C744.143 578.755 746.873 576.792 749.092 574.232C751.353 571.672 753.081 568.557 754.276 564.888C755.471 561.176 756.068 556.995 756.068 552.344ZM810.187 564.504V599H788.555V505.752H818.891C825.632 505.752 831.371 506.456 836.107 507.864C840.886 509.229 844.768 511.149 847.755 513.624C850.784 516.099 852.982 519.021 854.347 522.392C855.712 525.763 856.395 529.432 856.395 533.4C856.395 536.429 855.99 539.288 855.179 541.976C854.368 544.664 853.152 547.16 851.531 549.464C849.952 551.725 847.99 553.752 845.643 555.544C843.339 557.336 840.672 558.808 837.643 559.96C839.094 560.685 840.438 561.581 841.675 562.648C842.955 563.715 844.064 565.016 845.003 566.552L864.843 599H845.259C841.632 599 839.03 597.635 837.451 594.904L821.963 567.832C821.28 566.637 820.47 565.784 819.531 565.272C818.635 564.76 817.355 564.504 815.691 564.504H810.187ZM810.187 549.592H818.891C821.835 549.592 824.331 549.229 826.379 548.504C828.47 547.736 830.176 546.691 831.499 545.368C832.822 544.045 833.782 542.509 834.379 540.76C834.976 538.968 835.275 537.048 835.275 535C835.275 530.904 833.931 527.704 831.243 525.4C828.598 523.096 824.48 521.944 818.891 521.944H810.187V549.592ZM937.517 505.752V522.904H911.277V599H889.645V522.904H863.405V505.752H937.517ZM1006.46 505.752V522.392H968.19V546.008H1000.06V562.712H968.19V599H946.43V505.752H1006.46ZM1109.71 552.344C1109.71 559.085 1108.54 565.357 1106.19 571.16C1103.89 576.963 1100.62 582.019 1096.4 586.328C1092.18 590.595 1087.08 593.944 1081.1 596.376C1075.17 598.808 1068.58 600.024 1061.33 600.024C1054.07 600.024 1047.46 598.808 1041.49 596.376C1035.51 593.944 1030.39 590.595 1026.13 586.328C1021.9 582.019 1018.62 576.963 1016.27 571.16C1013.97 565.357 1012.82 559.085 1012.82 552.344C1012.82 545.603 1013.97 539.331 1016.27 533.528C1018.62 527.725 1021.9 522.691 1026.13 518.424C1030.39 514.157 1035.51 510.808 1041.49 508.376C1047.46 505.944 1054.07 504.728 1061.33 504.728C1068.58 504.728 1075.17 505.965 1081.1 508.44C1087.08 510.872 1092.18 514.221 1096.4 518.488C1100.62 522.755 1103.89 527.789 1106.19 533.592C1108.54 539.395 1109.71 545.645 1109.71 552.344ZM1087.57 552.344C1087.57 547.736 1086.97 543.597 1085.78 539.928C1084.58 536.216 1082.85 533.08 1080.59 530.52C1078.37 527.96 1075.64 525.997 1072.4 524.632C1069.16 523.267 1065.47 522.584 1061.33 522.584C1057.15 522.584 1053.41 523.267 1050.13 524.632C1046.89 525.997 1044.13 527.96 1041.87 530.52C1039.65 533.08 1037.95 536.216 1036.75 539.928C1035.56 543.597 1034.96 547.736 1034.96 552.344C1034.96 556.995 1035.56 561.176 1036.75 564.888C1037.95 568.557 1039.65 571.672 1041.87 574.232C1044.13 576.792 1046.89 578.755 1050.13 580.12C1053.41 581.443 1057.15 582.104 1061.33 582.104C1065.47 582.104 1069.16 581.443 1072.4 580.12C1075.64 578.755 1078.37 576.792 1080.59 574.232C1082.85 571.672 1084.58 568.557 1085.78 564.888C1086.97 561.176 1087.57 556.995 1087.57 552.344ZM1141.69 581.72H1176.25V599H1120.06V505.752H1141.69V581.72ZM1210.11 599H1188.35V505.752H1210.11V599ZM1319.46 552.344C1319.46 559.085 1318.29 565.357 1315.94 571.16C1313.64 576.963 1310.37 582.019 1306.15 586.328C1301.93 590.595 1296.83 593.944 1290.85 596.376C1284.92 598.808 1278.33 600.024 1271.08 600.024C1263.82 600.024 1257.21 598.808 1251.24 596.376C1245.26 593.944 1240.14 590.595 1235.88 586.328C1231.65 582.019 1228.37 576.963 1226.02 571.16C1223.72 565.357 1222.57 559.085 1222.57 552.344C1222.57 545.603 1223.72 539.331 1226.02 533.528C1228.37 527.725 1231.65 522.691 1235.88 518.424C1240.14 514.157 1245.26 510.808 1251.24 508.376C1257.21 505.944 1263.82 504.728 1271.08 504.728C1278.33 504.728 1284.92 505.965 1290.85 508.44C1296.83 510.872 1301.93 514.221 1306.15 518.488C1310.37 522.755 1313.64 527.789 1315.94 533.592C1318.29 539.395 1319.46 545.645 1319.46 552.344ZM1297.32 552.344C1297.32 547.736 1296.72 543.597 1295.53 539.928C1294.33 536.216 1292.6 533.08 1290.34 530.52C1288.12 527.96 1285.39 525.997 1282.15 524.632C1278.91 523.267 1275.22 522.584 1271.08 522.584C1266.9 522.584 1263.16 523.267 1259.88 524.632C1256.64 525.997 1253.88 527.96 1251.62 530.52C1249.4 533.08 1247.7 536.216 1246.5 539.928C1245.31 543.597 1244.71 547.736 1244.71 552.344C1244.71 556.995 1245.31 561.176 1246.5 564.888C1247.7 568.557 1249.4 571.672 1251.62 574.232C1253.88 576.792 1256.64 578.755 1259.88 580.12C1263.16 581.443 1266.9 582.104 1271.08 582.104C1275.22 582.104 1278.91 581.443 1282.15 580.12C1285.39 578.755 1288.12 576.792 1290.34 574.232C1292.6 571.672 1294.33 568.557 1295.53 564.888C1296.72 561.176 1297.32 556.995 1297.32 552.344Z" fill="white"/>
</g>
</g>
<defs>
<filter id="filter0_i_0_1" x="604.555" y="504.728" width="714.907" height="105.296" filterUnits="userSpaceOnUse" color-interpolation-filters="sRGB">
<feFlood flood-opacity="0" result="BackgroundImageFix"/>
<feBlend mode="normal" in="SourceGraphic" in2="BackgroundImageFix" result="shape"/>
<feColorMatrix in="SourceAlpha" type="matrix" values="0 0 0 0 0 0 0 0 0 0 0 0 0 0 0 0 0 0 127 0" result="hardAlpha"/>
<feOffset dy="10"/>
<feGaussianBlur stdDeviation="7.95"/>
<feComposite in2="hardAlpha" operator="arithmetic" k2="-1" k3="1"/>
<feColorMatrix type="matrix" values="0 0 0 0 0 0 0 0 0 0 0 0 0 0 0 0 0 0 0.25 0"/>
<feBlend mode="normal" in2="shape" result="effect1_innerShadow_0_1"/>
</filter>
<clipPath id="clip0_0_1">
<rect width="1920" height="1080" fill="white"/>
</clipPath>
</defs>
</svg>
